Coordinates
version=1
nRows=17
nColumns=24
inDegrees=yes

Units are S.I. units (second, meters, Newtons, ...)
Angles are in degrees.

endheader
time	pelvis_tilt	pelvis_list	pelvis_rotation	pelvis_tx	pelvis_ty	pelvis_tz	hip_flexion_r	hip_adduction_r	hip_rotation_r	knee_angle_r	ankle_angle_r	subtalar_angle_r	mtp_angle_r	hip_flexion_l	hip_adduction_l	hip_rotation_l	knee_angle_l	ankle_angle_l	subtalar_angle_l	mtp_angle_l	lumbar_extension	lumbar_bending	lumbar_rotation
      1.30000000	     -0.68730026	     -4.65301093	     -0.02818220	      0.04998607	      1.03809579	      0.35364048	    -19.36047517	     10.84135783	     -5.34264962	     -3.13204168	      6.47227367	     -6.91160664	     -3.00817180	     25.13692199	     -1.43027088	     -7.80662852	      1.57983337	     13.94840705	     10.68187038	     -1.11153817	      6.83547385	      8.06916227	      0.71194567
      1.30416667	     -0.68177457	     -4.61636024	     -0.06792749	      0.05575534	      1.03782246	      0.35365380	    -19.51673811	     10.76045566	     -5.32971364	     -3.47039328	      6.34460678	     -6.88853680	     -2.99895124	     25.09222467	     -1.38860119	     -7.76663827	      1.15006687	     14.01055954	     10.63934674	     -1.12295214	      6.90690257	      7.98379479	      0.74847986
      1.30833333	     -0.67234977	     -4.49253742	     -0.13029322	      0.06182591	      1.03761387	      0.35365564	    -19.69107357	     10.57268017	     -5.40022802	     -3.78610215	      5.95978580	     -6.82784585	     -2.96657257	     24.98373248	     -1.26099812	     -7.78377164	      0.76543946	     14.23255671	     10.49527658	     -1.15970622	      6.94157002	      7.81668835	      0.84796991
      1.31250000	     -0.62517823	     -4.40929921	     -0.18386846	      0.06777730	      1.03747151	      0.35365838	    -19.88486273	     10.43122593	     -5.43626616	     -4.13543673	      5.66598112	     -6.78418354	     -2.91859074	     24.83304772	     -1.17645308	     -7.70935711	      0.39024286	     14.24844810	     10.36191282	     -1.20792365	      6.95744882	      7.68937181	      0.96205066
      1.31666667	     -0.62583227	     -4.37558724	     -0.23712377	      0.07365949	      1.03727262	      0.35365621	    -20.01085339	     10.34502186	     -5.40113980	     -4.52561224	      5.58271200	     -6.78372715	     -2.90846837	     24.74093793	     -1.14434894	     -7.62934203	     -0.00190051	     14.21517815	     10.32984746	     -1.21638700	      7.02388022	      7.63081316	      0.99121134
      1.32083333	     -0.57654520	     -4.24212161	     -0.35804881	      0.07984082	      1.03723736	      0.35368462	    -20.19410378	     10.11680552	     -5.46152349	     -4.90889154	      5.12684258	     -6.74708787	     -2.85759572	     24.51486923	     -1.02927257	     -7.65145743	     -0.28771717	     14.12416312	     10.05962363	     -1.25667654	      7.05121148	      7.47006720	      1.11344437
      1.32500000	     -0.51310887	     -4.13332150	     -0.44532164	      0.08596307	      1.03722297	      0.35368977	    -20.37941396	      9.92829538	     -5.49133462	     -5.31058898	      4.77075699	     -6.71844524	     -2.78294435	     24.26602437	     -0.92747235	     -7.54935026	     -0.54539503	     13.90699142	      9.77487223	     -1.30325284	      7.04185666	      7.30909145	      1.26601189
      1.32916667	     -0.50768748	     -4.10868308	     -0.49243131	      0.09191026	      1.03710810	      0.35365913	    -20.47390370	      9.84864335	     -5.45923465	     -5.76347961	      4.68176294	     -6.72403295	     -2.77116100	     24.12178847	     -0.90210499	     -7.47359947	     -0.87694418	     13.84720179	      9.73584914	     -1.30887264	      7.11581390	      7.25180250	      1.29424597
      1.33333333	     -0.47162723	     -3.94090957	     -0.67128169	      0.09830798	      1.03719307	      0.35369755	    -20.60483477	      9.55011584	     -5.54178987	     -6.22558761	      4.14641559	     -6.68364228	     -2.70774389	     23.82362608	     -0.76322922	     -7.54837445	     -1.01162266	     13.48316014	      9.37982521	     -1.33922988	      7.15600163	      7.11079929	      1.41738014
      1.33750000	     -0.44809229	     -3.93361764	     -0.72027119	      0.10424743	      1.03715802	      0.35366906	    -20.68205640	      9.48367352	     -5.51887136	     -6.74666421	      4.00143601	     -6.68223741	     -2.68877649	     23.62925783	     -0.75734888	     -7.46667397	     -1.26447376	     13.35827771	      9.30832670	     -1.34533552	      7.23900916	      7.00913881	      1.46453457
      1.34166667	     -0.16069129	     -3.71482511	     -0.81192280	      0.11057627	      1.03760662	      0.35349253	    -21.05770021	      9.13638390	     -5.69192058	     -7.20764674	      3.39840408	     -6.58229920	     -2.31655081	     22.98546421	     -0.50783359	     -7.07880370	     -1.20332724	     12.52912346	      7.99852966	     -1.40248532	      6.90396748	      6.82396823	      1.94369869
      1.34583333	     -0.19873575	     -3.60232146	     -0.98659873	      0.11694315	      1.03766213	      0.35352532	    -21.04393219	      8.89358702	     -5.74512298	     -7.78718730	      3.01459981	     -6.51868723	     -2.24340313	     22.75395010	     -0.42288756	     -7.19719536	     -1.30357369	     12.20624935	      7.86412273	     -1.41083509	      7.02571380	      6.70376509	      1.97568890
      1.35000000	     -0.19723104	     -3.48362035	     -1.14514459	      0.12329945	      1.03779680	      0.35355792	    -21.05546754	      8.64801644	     -5.79772865	     -8.38562041	      2.55847172	     -6.46802712	     -2.16144890	     22.46842421	     -0.32484164	     -7.28809470	     -1.35885469	     11.70711736	      7.64510584	     -1.41702303	      7.13849345	      6.55815094	      2.03950756
      1.35416667	     -0.07075233	     -3.37786085	     -1.21520142	      0.12950268	      1.03808246	      0.35345370	    -21.18630314	      8.43893965	     -5.83410965	     -8.97535861	      2.03582591	     -6.39057605	     -1.80775437	     22.03637490	     -0.19810568	     -7.01295271	     -1.34137852	     10.88180181	      6.77039552	     -1.38776788	      7.04970410	      6.33115793	      2.29625059
      1.35833333	     -0.06023603	     -3.34406334	     -1.32262745	      0.13559278	      1.03824480	      0.35344253	    -21.13600510	      8.29893255	     -5.89145693	     -9.70370196	      1.85860908	     -6.41883755	     -1.78318269	     21.77707603	     -0.17512132	     -7.03103955	     -1.44634748	     10.74818340	      6.73160451	     -1.38531209	      7.16555838	      6.28282519	      2.30501803
      1.36250000	     -0.05312237	     -3.14204988	     -1.51824246	      0.14224087	      1.03851933	      0.35348392	    -21.10172716	      7.93128871	     -6.02421876	    -10.37030872	      1.05224563	     -6.30640343	     -1.65615357	     21.44987391	      0.00720581	     -7.40304168	     -1.43762880	      9.85094521	      6.25452303	     -1.37571432	      7.33937958	      6.07933731	      2.39302215
      1.36666667	     -0.03089182	     -3.00552344	     -1.66970833	      0.14865282	      1.03881776	      0.35347017	    -21.04408533	      7.64550653	     -6.10370621	    -11.10981985	      0.44902753	     -6.25878679	     -1.48473494	     21.10946486	      0.13838308	     -7.41357583	     -1.40294094	      9.05635732	      5.71359211	     -1.34397404	      7.41170630	      5.90741462	      2.51570834
